<svg width="227" height="59" viewBox="0 0 227 59" fill="none" xmlns="http://www.w3.org/2000/svg">
<g filter="url(#filter0_d_6_70)">
<mask id="path-1-outside-1_6_70" maskUnits="userSpaceOnUse" x="54.1428" y="13" width="139" height="37" fill="black">
<rect fill="white" x="54.1428" y="13" width="139" height="37"/>
<path d="M68.1748 22.32C70.5428 22.32 72.3668 22.912 73.6468 24.096C74.9268 25.248 75.7748 26.816 76.1908 28.8L75.4228 28.56L75.7588 27.792C76.1748 26.96 76.7988 26.128 77.6308 25.296C78.4948 24.432 79.5188 23.728 80.7028 23.184C81.8868 22.608 83.1508 22.32 84.4948 22.32C86.7028 22.32 88.4148 22.8 89.6308 23.76C90.8468 24.688 91.6948 25.952 92.1748 27.552C92.6548 29.12 92.8948 30.88 92.8948 32.832V45.552C92.8948 46.256 92.6708 46.848 92.2228 47.328C91.7748 47.776 91.1988 48 90.4948 48C89.8228 48 89.2468 47.776 88.7668 47.328C88.3188 46.848 88.0948 46.256 88.0948 45.552V32.88C88.0948 31.76 87.9348 30.736 87.6148 29.808C87.3268 28.88 86.7988 28.144 86.0308 27.6C85.2948 27.024 84.2708 26.736 82.9588 26.736C81.7108 26.736 80.5908 27.024 79.5988 27.6C78.6388 28.144 77.8868 28.88 77.3428 29.808C76.7988 30.736 76.5268 31.76 76.5268 32.88V45.552C76.5268 46.256 76.3028 46.848 75.8548 47.328C75.4068 47.776 74.8308 48 74.1268 48C73.4228 48 72.8468 47.776 72.3988 47.328C71.9508 46.848 71.7268 46.256 71.7268 45.552V32.832C71.7268 31.712 71.5668 30.688 71.2468 29.76C70.9588 28.832 70.4468 28.096 69.7108 27.552C68.9748 27.008 67.9508 26.736 66.6388 26.736C65.3908 26.736 64.2868 27.008 63.3268 27.552C62.3668 28.096 61.6148 28.832 61.0708 29.76C60.5588 30.688 60.3028 31.712 60.3028 32.832V45.552C60.3028 46.256 60.0628 46.848 59.5828 47.328C59.1348 47.776 58.5748 48 57.9028 48C57.1988 48 56.6228 47.776 56.1748 47.328C55.7268 46.848 55.5028 46.256 55.5028 45.552V25.2C55.5028 24.496 55.7268 23.92 56.1748 23.472C56.6228 22.992 57.1988 22.752 57.9028 22.752C58.5748 22.752 59.1348 22.992 59.5828 23.472C60.0628 23.92 60.3028 24.496 60.3028 25.2V28.032L59.3908 28.56C59.6148 27.856 59.9828 27.136 60.4948 26.4C61.0068 25.664 61.6468 24.992 62.4148 24.384C63.2148 23.776 64.0948 23.28 65.0548 22.896C66.0148 22.512 67.0548 22.32 68.1748 22.32ZM120.3 22.368C121.004 22.368 121.58 22.608 122.028 23.088C122.476 23.536 122.7 24.112 122.7 24.816V45.552C122.7 46.256 122.476 46.848 122.028 47.328C121.58 47.776 121.004 48 120.3 48C119.628 48 119.052 47.776 118.572 47.328C118.124 46.848 117.9 46.256 117.9 45.552V42.096L118.908 42.24C118.908 42.816 118.668 43.456 118.188 44.16C117.74 44.864 117.116 45.552 116.316 46.224C115.516 46.864 114.572 47.408 113.484 47.856C112.396 48.272 111.228 48.48 109.98 48.48C107.772 48.48 105.788 47.92 104.028 46.8C102.268 45.648 100.876 44.08 99.8522 42.096C98.8282 40.112 98.3162 37.856 98.3162 35.328C98.3162 32.736 98.8282 30.464 99.8522 28.512C100.876 26.528 102.252 24.976 103.98 23.856C105.74 22.736 107.692 22.176 109.836 22.176C111.212 22.176 112.476 22.4 113.628 22.848C114.812 23.296 115.836 23.872 116.7 24.576C117.564 25.28 118.22 26.032 118.668 26.832C119.148 27.6 119.388 28.336 119.388 29.04L117.9 29.184V24.816C117.9 24.144 118.124 23.568 118.572 23.088C119.052 22.608 119.628 22.368 120.3 22.368ZM110.508 44.064C112.012 44.064 113.34 43.68 114.492 42.912C115.644 42.144 116.54 41.104 117.18 39.792C117.82 38.448 118.14 36.96 118.14 35.328C118.14 33.664 117.82 32.176 117.18 30.864C116.54 29.552 115.644 28.512 114.492 27.744C113.34 26.976 112.012 26.592 110.508 26.592C109.036 26.592 107.724 26.976 106.572 27.744C105.452 28.512 104.556 29.552 103.884 30.864C103.244 32.176 102.924 33.664 102.924 35.328C102.924 36.96 103.244 38.448 103.884 39.792C104.556 41.104 105.452 42.144 106.572 42.912C107.724 43.68 109.036 44.064 110.508 44.064ZM142.433 22.176C144.705 22.176 146.465 22.656 147.713 23.616C148.961 24.544 149.825 25.808 150.305 27.408C150.817 28.976 151.073 30.736 151.073 32.688V45.552C151.073 46.256 150.833 46.848 150.353 47.328C149.905 47.776 149.345 48 148.673 48C147.969 48 147.393 47.776 146.945 47.328C146.497 46.848 146.273 46.256 146.273 45.552V32.736C146.273 31.584 146.113 30.56 145.793 29.664C145.473 28.736 144.913 28 144.113 27.456C143.345 26.88 142.257 26.592 140.849 26.592C139.537 26.592 138.385 26.88 137.393 27.456C136.401 28 135.617 28.736 135.041 29.664C134.497 30.56 134.225 31.584 134.225 32.736V45.552C134.225 46.256 133.985 46.848 133.505 47.328C133.057 47.776 132.497 48 131.825 48C131.121 48 130.545 47.776 130.097 47.328C129.649 46.848 129.425 46.256 129.425 45.552V25.2C129.425 24.496 129.649 23.92 130.097 23.472C130.545 22.992 131.121 22.752 131.825 22.752C132.497 22.752 133.057 22.992 133.505 23.472C133.985 23.92 134.225 24.496 134.225 25.2V27.888L133.361 28.368C133.585 27.664 133.969 26.96 134.513 26.256C135.089 25.52 135.777 24.848 136.577 24.24C137.377 23.6 138.273 23.104 139.265 22.752C140.257 22.368 141.313 22.176 142.433 22.176ZM162.249 45.552C162.249 46.256 162.025 46.848 161.577 47.328C161.129 47.776 160.553 48 159.849 48C159.177 48 158.601 47.776 158.121 47.328C157.673 46.848 157.449 46.256 157.449 45.552V25.008C157.449 24.304 157.673 23.728 158.121 23.28C158.601 22.8 159.177 22.56 159.849 22.56C160.553 22.56 161.129 22.8 161.577 23.28C162.025 23.728 162.249 24.304 162.249 25.008V45.552ZM159.801 19.392C158.873 19.392 158.201 19.232 157.785 18.912C157.369 18.56 157.161 17.984 157.161 17.184V16.416C157.161 15.616 157.385 15.056 157.833 14.736C158.281 14.416 158.953 14.256 159.849 14.256C160.809 14.256 161.497 14.432 161.913 14.784C162.329 15.104 162.537 15.648 162.537 16.416V17.184C162.537 18.016 162.313 18.592 161.865 18.912C161.449 19.232 160.761 19.392 159.801 19.392ZM189.394 22.368C190.098 22.368 190.674 22.608 191.122 23.088C191.57 23.536 191.794 24.112 191.794 24.816V45.552C191.794 46.256 191.57 46.848 191.122 47.328C190.674 47.776 190.098 48 189.394 48C188.722 48 188.146 47.776 187.666 47.328C187.218 46.848 186.994 46.256 186.994 45.552V42.096L188.002 42.24C188.002 42.816 187.762 43.456 187.282 44.16C186.834 44.864 186.21 45.552 185.41 46.224C184.61 46.864 183.666 47.408 182.578 47.856C181.49 48.272 180.322 48.48 179.074 48.48C176.866 48.48 174.882 47.92 173.122 46.8C171.362 45.648 169.97 44.08 168.946 42.096C167.922 40.112 167.41 37.856 167.41 35.328C167.41 32.736 167.922 30.464 168.946 28.512C169.97 26.528 171.346 24.976 173.074 23.856C174.834 22.736 176.786 22.176 178.93 22.176C180.306 22.176 181.57 22.4 182.722 22.848C183.906 23.296 184.93 23.872 185.794 24.576C186.658 25.28 187.314 26.032 187.762 26.832C188.242 27.6 188.482 28.336 188.482 29.04L186.994 29.184V24.816C186.994 24.144 187.218 23.568 187.666 23.088C188.146 22.608 188.722 22.368 189.394 22.368ZM179.602 44.064C181.106 44.064 182.434 43.68 183.586 42.912C184.738 42.144 185.634 41.104 186.274 39.792C186.914 38.448 187.234 36.96 187.234 35.328C187.234 33.664 186.914 32.176 186.274 30.864C185.634 29.552 184.738 28.512 183.586 27.744C182.434 26.976 181.106 26.592 179.602 26.592C178.13 26.592 176.818 26.976 175.666 27.744C174.546 28.512 173.65 29.552 172.978 30.864C172.338 32.176 172.018 33.664 172.018 35.328C172.018 36.96 172.338 38.448 172.978 39.792C173.65 41.104 174.546 42.144 175.666 42.912C176.818 43.68 178.13 44.064 179.602 44.064Z"/>
</mask>
<path d="M68.1748 22.32C70.5428 22.32 72.3668 22.912 73.6468 24.096C74.9268 25.248 75.7748 26.816 76.1908 28.8L75.4228 28.56L75.7588 27.792C76.1748 26.96 76.7988 26.128 77.6308 25.296C78.4948 24.432 79.5188 23.728 80.7028 23.184C81.8868 22.608 83.1508 22.32 84.4948 22.32C86.7028 22.32 88.4148 22.8 89.6308 23.76C90.8468 24.688 91.6948 25.952 92.1748 27.552C92.6548 29.12 92.8948 30.88 92.8948 32.832V45.552C92.8948 46.256 92.6708 46.848 92.2228 47.328C91.7748 47.776 91.1988 48 90.4948 48C89.8228 48 89.2468 47.776 88.7668 47.328C88.3188 46.848 88.0948 46.256 88.0948 45.552V32.88C88.0948 31.76 87.9348 30.736 87.6148 29.808C87.3268 28.88 86.7988 28.144 86.0308 27.6C85.2948 27.024 84.2708 26.736 82.9588 26.736C81.7108 26.736 80.5908 27.024 79.5988 27.6C78.6388 28.144 77.8868 28.88 77.3428 29.808C76.7988 30.736 76.5268 31.76 76.5268 32.88V45.552C76.5268 46.256 76.3028 46.848 75.8548 47.328C75.4068 47.776 74.8308 48 74.1268 48C73.4228 48 72.8468 47.776 72.3988 47.328C71.9508 46.848 71.7268 46.256 71.7268 45.552V32.832C71.7268 31.712 71.5668 30.688 71.2468 29.76C70.9588 28.832 70.4468 28.096 69.7108 27.552C68.9748 27.008 67.9508 26.736 66.6388 26.736C65.3908 26.736 64.2868 27.008 63.3268 27.552C62.3668 28.096 61.6148 28.832 61.0708 29.76C60.5588 30.688 60.3028 31.712 60.3028 32.832V45.552C60.3028 46.256 60.0628 46.848 59.5828 47.328C59.1348 47.776 58.5748 48 57.9028 48C57.1988 48 56.6228 47.776 56.1748 47.328C55.7268 46.848 55.5028 46.256 55.5028 45.552V25.2C55.5028 24.496 55.7268 23.92 56.1748 23.472C56.6228 22.992 57.1988 22.752 57.9028 22.752C58.5748 22.752 59.1348 22.992 59.5828 23.472C60.0628 23.92 60.3028 24.496 60.3028 25.2V28.032L59.3908 28.56C59.6148 27.856 59.9828 27.136 60.4948 26.4C61.0068 25.664 61.6468 24.992 62.4148 24.384C63.2148 23.776 64.0948 23.28 65.0548 22.896C66.0148 22.512 67.0548 22.32 68.1748 22.32ZM120.3 22.368C121.004 22.368 121.58 22.608 122.028 23.088C122.476 23.536 122.7 24.112 122.7 24.816V45.552C122.7 46.256 122.476 46.848 122.028 47.328C121.58 47.776 121.004 48 120.3 48C119.628 48 119.052 47.776 118.572 47.328C118.124 46.848 117.9 46.256 117.9 45.552V42.096L118.908 42.24C118.908 42.816 118.668 43.456 118.188 44.16C117.74 44.864 117.116 45.552 116.316 46.224C115.516 46.864 114.572 47.408 113.484 47.856C112.396 48.272 111.228 48.48 109.98 48.48C107.772 48.48 105.788 47.92 104.028 46.8C102.268 45.648 100.876 44.08 99.8522 42.096C98.8282 40.112 98.3162 37.856 98.3162 35.328C98.3162 32.736 98.8282 30.464 99.8522 28.512C100.876 26.528 102.252 24.976 103.98 23.856C105.74 22.736 107.692 22.176 109.836 22.176C111.212 22.176 112.476 22.4 113.628 22.848C114.812 23.296 115.836 23.872 116.7 24.576C117.564 25.28 118.22 26.032 118.668 26.832C119.148 27.6 119.388 28.336 119.388 29.04L117.9 29.184V24.816C117.9 24.144 118.124 23.568 118.572 23.088C119.052 22.608 119.628 22.368 120.3 22.368ZM110.508 44.064C112.012 44.064 113.34 43.68 114.492 42.912C115.644 42.144 116.54 41.104 117.18 39.792C117.82 38.448 118.14 36.96 118.14 35.328C118.14 33.664 117.82 32.176 117.18 30.864C116.54 29.552 115.644 28.512 114.492 27.744C113.34 26.976 112.012 26.592 110.508 26.592C109.036 26.592 107.724 26.976 106.572 27.744C105.452 28.512 104.556 29.552 103.884 30.864C103.244 32.176 102.924 33.664 102.924 35.328C102.924 36.96 103.244 38.448 103.884 39.792C104.556 41.104 105.452 42.144 106.572 42.912C107.724 43.68 109.036 44.064 110.508 44.064ZM142.433 22.176C144.705 22.176 146.465 22.656 147.713 23.616C148.961 24.544 149.825 25.808 150.305 27.408C150.817 28.976 151.073 30.736 151.073 32.688V45.552C151.073 46.256 150.833 46.848 150.353 47.328C149.905 47.776 149.345 48 148.673 48C147.969 48 147.393 47.776 146.945 47.328C146.497 46.848 146.273 46.256 146.273 45.552V32.736C146.273 31.584 146.113 30.56 145.793 29.664C145.473 28.736 144.913 28 144.113 27.456C143.345 26.88 142.257 26.592 140.849 26.592C139.537 26.592 138.385 26.88 137.393 27.456C136.401 28 135.617 28.736 135.041 29.664C134.497 30.56 134.225 31.584 134.225 32.736V45.552C134.225 46.256 133.985 46.848 133.505 47.328C133.057 47.776 132.497 48 131.825 48C131.121 48 130.545 47.776 130.097 47.328C129.649 46.848 129.425 46.256 129.425 45.552V25.2C129.425 24.496 129.649 23.92 130.097 23.472C130.545 22.992 131.121 22.752 131.825 22.752C132.497 22.752 133.057 22.992 133.505 23.472C133.985 23.92 134.225 24.496 134.225 25.2V27.888L133.361 28.368C133.585 27.664 133.969 26.96 134.513 26.256C135.089 25.52 135.777 24.848 136.577 24.24C137.377 23.6 138.273 23.104 139.265 22.752C140.257 22.368 141.313 22.176 142.433 22.176ZM162.249 45.552C162.249 46.256 162.025 46.848 161.577 47.328C161.129 47.776 160.553 48 159.849 48C159.177 48 158.601 47.776 158.121 47.328C157.673 46.848 157.449 46.256 157.449 45.552V25.008C157.449 24.304 157.673 23.728 158.121 23.28C158.601 22.8 159.177 22.56 159.849 22.56C160.553 22.56 161.129 22.8 161.577 23.28C162.025 23.728 162.249 24.304 162.249 25.008V45.552ZM159.801 19.392C158.873 19.392 158.201 19.232 157.785 18.912C157.369 18.56 157.161 17.984 157.161 17.184V16.416C157.161 15.616 157.385 15.056 157.833 14.736C158.281 14.416 158.953 14.256 159.849 14.256C160.809 14.256 161.497 14.432 161.913 14.784C162.329 15.104 162.537 15.648 162.537 16.416V17.184C162.537 18.016 162.313 18.592 161.865 18.912C161.449 19.232 160.761 19.392 159.801 19.392ZM189.394 22.368C190.098 22.368 190.674 22.608 191.122 23.088C191.57 23.536 191.794 24.112 191.794 24.816V45.552C191.794 46.256 191.57 46.848 191.122 47.328C190.674 47.776 190.098 48 189.394 48C188.722 48 188.146 47.776 187.666 47.328C187.218 46.848 186.994 46.256 186.994 45.552V42.096L188.002 42.24C188.002 42.816 187.762 43.456 187.282 44.16C186.834 44.864 186.21 45.552 185.41 46.224C184.61 46.864 183.666 47.408 182.578 47.856C181.49 48.272 180.322 48.48 179.074 48.48C176.866 48.48 174.882 47.92 173.122 46.8C171.362 45.648 169.97 44.08 168.946 42.096C167.922 40.112 167.41 37.856 167.41 35.328C167.41 32.736 167.922 30.464 168.946 28.512C169.97 26.528 171.346 24.976 173.074 23.856C174.834 22.736 176.786 22.176 178.93 22.176C180.306 22.176 181.57 22.4 182.722 22.848C183.906 23.296 184.93 23.872 185.794 24.576C186.658 25.28 187.314 26.032 187.762 26.832C188.242 27.6 188.482 28.336 188.482 29.04L186.994 29.184V24.816C186.994 24.144 187.218 23.568 187.666 23.088C188.146 22.608 188.722 22.368 189.394 22.368ZM179.602 44.064C181.106 44.064 182.434 43.68 183.586 42.912C184.738 42.144 185.634 41.104 186.274 39.792C186.914 38.448 187.234 36.96 187.234 35.328C187.234 33.664 186.914 32.176 186.274 30.864C185.634 29.552 184.738 28.512 183.586 27.744C182.434 26.976 181.106 26.592 179.602 26.592C178.13 26.592 176.818 26.976 175.666 27.744C174.546 28.512 173.65 29.552 172.978 30.864C172.338 32.176 172.018 33.664 172.018 35.328C172.018 36.96 172.338 38.448 172.978 39.792C173.65 41.104 174.546 42.144 175.666 42.912C176.818 43.68 178.13 44.064 179.602 44.064Z" fill="#FF8C42"/>
<path d="M73.6468 24.096L72.9677 24.8302L72.9779 24.8393L73.6468 24.096ZM76.1908 28.8L75.8925 29.7545L77.5193 30.2628L77.1695 28.5948L76.1908 28.8ZM75.4228 28.56L74.5067 28.1592L74.0594 29.1816L75.1245 29.5145L75.4228 28.56ZM75.7588 27.792L74.8644 27.3448L74.8529 27.3677L74.8427 27.3912L75.7588 27.792ZM77.6308 25.296L78.3379 26.0031L77.6308 25.296ZM80.7028 23.184L81.1203 24.0927L81.1304 24.0881L81.1403 24.0832L80.7028 23.184ZM89.6308 23.76L89.0112 24.5449L89.0176 24.55L89.0242 24.555L89.6308 23.76ZM92.1748 27.552L91.217 27.8394L91.2186 27.8447L92.1748 27.552ZM92.2228 47.328L92.9299 48.0351L92.9421 48.0229L92.9539 48.0103L92.2228 47.328ZM88.7668 47.328L88.0358 48.0103L88.0593 48.0355L88.0845 48.0591L88.7668 47.328ZM87.6148 29.808L86.6598 30.1044L86.6644 30.1193L86.6694 30.134L87.6148 29.808ZM86.0308 27.6L85.4145 28.3875L85.4333 28.4022L85.4528 28.416L86.0308 27.6ZM79.5988 27.6L80.0919 28.4701L80.101 28.4648L79.5988 27.6ZM77.3428 29.808L78.2055 30.3137H78.2055L77.3428 29.808ZM75.8548 47.328L76.5619 48.0351L76.5741 48.0229L76.5859 48.0103L75.8548 47.328ZM72.3988 47.328L71.6678 48.0103L71.6795 48.0229L71.6917 48.0351L72.3988 47.328ZM71.2468 29.76L70.2918 30.0564L70.2964 30.0713L70.3015 30.086L71.2468 29.76ZM69.7108 27.552L70.3052 26.7478L70.3052 26.7478L69.7108 27.552ZM63.3268 27.552L62.8338 26.682H62.8338L63.3268 27.552ZM61.0708 29.76L60.2081 29.2543L60.2015 29.2655L60.1952 29.2769L61.0708 29.76ZM59.5828 47.328L58.8757 46.6209L59.5828 47.328ZM56.1748 47.328L55.4438 48.0103L55.4555 48.0229L55.4677 48.0351L56.1748 47.328ZM56.1748 23.472L56.8819 24.1791L56.8941 24.1669L56.9059 24.1543L56.1748 23.472ZM59.5828 23.472L58.8518 24.1543L58.8753 24.1795L58.9005 24.2031L59.5828 23.472ZM60.3028 28.032L60.8039 28.8974L61.3028 28.6086V28.032H60.3028ZM59.3908 28.56L58.4379 28.2568L57.6538 30.7212L59.8919 29.4254L59.3908 28.56ZM62.4148 24.384L61.8097 23.5878L61.8019 23.5938L61.7941 23.6L62.4148 24.384ZM65.0548 22.896L65.4262 23.8245H65.4262L65.0548 22.896ZM68.1748 23.32C70.3825 23.32 71.9303 23.8704 72.9678 24.8301L74.3259 23.3619C72.8034 21.9536 70.7031 21.32 68.1748 21.32V23.32ZM72.9779 24.8393C74.0736 25.8254 74.8317 27.1909 75.2121 29.0052L77.1695 28.5948C76.718 26.4411 75.7801 24.6706 74.3158 23.3527L72.9779 24.8393ZM76.4891 27.8455L75.7211 27.6055L75.1245 29.5145L75.8925 29.7545L76.4891 27.8455ZM76.339 28.9608L76.675 28.1928L74.8427 27.3912L74.5067 28.1592L76.339 28.9608ZM76.6532 28.2392C77.0104 27.5249 77.5627 26.7783 78.3379 26.0031L76.9237 24.5889C76.0349 25.4777 75.3393 26.3951 74.8644 27.3448L76.6532 28.2392ZM78.3379 26.0031C79.1127 25.2284 80.0368 24.5905 81.1203 24.0927L80.2853 22.2753C79.0008 22.8655 77.877 23.6356 76.9237 24.5889L78.3379 26.0031ZM81.1403 24.0832C82.1851 23.575 83.2991 23.32 84.4948 23.32V21.32C83.0025 21.32 81.5886 21.641 80.2654 22.2848L81.1403 24.0832ZM84.4948 23.32C86.5712 23.32 88.0331 23.7727 89.0112 24.5449L90.2505 22.9751C88.7966 21.8273 86.8344 21.32 84.4948 21.32V23.32ZM89.0242 24.555C90.0569 25.3431 90.7917 26.4218 91.217 27.8393L93.1327 27.2647C92.5979 25.4822 91.6367 24.0329 90.2375 22.965L89.0242 24.555ZM91.2186 27.8447C91.6647 29.3018 91.8948 30.9609 91.8948 32.832H93.8948C93.8948 30.7991 93.645 28.9382 93.131 27.2593L91.2186 27.8447ZM91.8948 32.832V45.552H93.8948V32.832H91.8948ZM91.8948 45.552C91.8948 46.0227 91.7537 46.365 91.4918 46.6457L92.9539 48.0103C93.5879 47.331 93.8948 46.4893 93.8948 45.552H91.8948ZM91.5157 46.6209C91.2769 46.8597 90.9659 47 90.4948 47V49C91.4317 49 92.2727 48.6923 92.9299 48.0351L91.5157 46.6209ZM90.4948 47C90.0695 47 89.7392 46.8677 89.4491 46.5969L88.0845 48.0591C88.7544 48.6843 89.5761 49 90.4948 49V47ZM89.4979 46.6457C89.2359 46.365 89.0948 46.0227 89.0948 45.552H87.0948C87.0948 46.4893 87.4017 47.331 88.0358 48.0103L89.4979 46.6457ZM89.0948 45.552V32.88H87.0948V45.552H89.0948ZM89.0948 32.88C89.0948 31.6645 88.9211 30.5285 88.5602 29.482L86.6694 30.134C86.9486 30.9435 87.0948 31.8555 87.0948 32.88H89.0948ZM88.5699 29.5116C88.219 28.381 87.5624 27.4594 86.6088 26.784L85.4528 28.416C86.0353 28.8286 86.4346 29.379 86.6598 30.1044L88.5699 29.5116ZM86.6471 26.8125C85.6764 26.0528 84.4058 25.736 82.9588 25.736V27.736C84.1358 27.736 84.9133 27.9952 85.4145 28.3875L86.6471 26.8125ZM82.9588 25.736C81.5504 25.736 80.2545 26.0629 79.0967 26.7352L80.101 28.4648C80.9272 27.9851 81.8712 27.736 82.9588 27.736V25.736ZM79.1058 26.73C77.9968 27.3584 77.1155 28.2184 76.4801 29.3023L78.2055 30.3137C78.6581 29.5416 79.2808 28.9296 80.0918 28.47L79.1058 26.73ZM76.4801 29.3023C75.8424 30.3901 75.5268 31.5899 75.5268 32.88H77.5268C77.5268 31.9301 77.7552 31.0819 78.2055 30.3137L76.4801 29.3023ZM75.5268 32.88V45.552H77.5268V32.88H75.5268ZM75.5268 45.552C75.5268 46.0227 75.3857 46.365 75.1238 46.6457L76.5859 48.0103C77.2199 47.331 77.5268 46.4893 77.5268 45.552H75.5268ZM75.1477 46.6209C74.9089 46.8597 74.5979 47 74.1268 47V49C75.0637 49 75.9047 48.6923 76.5619 48.0351L75.1477 46.6209ZM74.1268 47C73.6557 47 73.3447 46.8597 73.1059 46.6209L71.6917 48.0351C72.3489 48.6923 73.1899 49 74.1268 49V47ZM73.1299 46.6457C72.8679 46.365 72.7268 46.0227 72.7268 45.552H70.7268C70.7268 46.4893 71.0337 47.331 71.6678 48.0103L73.1299 46.6457ZM72.7268 45.552V32.832H70.7268V45.552H72.7268ZM72.7268 32.832C72.7268 31.6165 72.5531 30.4805 72.1922 29.434L70.3015 30.086C70.5806 30.8955 70.7268 31.8075 70.7268 32.832H72.7268ZM72.2019 29.4636C71.8549 28.3456 71.2233 27.4264 70.3052 26.7478L69.1164 28.3562C69.6703 28.7656 70.0627 29.3184 70.2918 30.0564L72.2019 29.4636ZM70.3052 26.7478C69.3369 26.0321 68.0752 25.736 66.6388 25.736V27.736C67.8264 27.736 68.6128 27.9839 69.1164 28.3562L70.3052 26.7478ZM66.6388 25.736C65.2411 25.736 63.963 26.0421 62.8338 26.682L63.8198 28.422C64.6106 27.9739 65.5406 27.736 66.6388 27.736V25.736ZM62.8338 26.682C61.7248 27.3104 60.8435 28.1704 60.2081 29.2543L61.9335 30.2657C62.3861 29.4936 63.0088 28.8816 63.8198 28.422L62.8338 26.682ZM60.1952 29.2769C59.597 30.3613 59.3028 31.553 59.3028 32.832H61.3028C61.3028 31.871 61.5207 31.0147 61.9464 30.2431L60.1952 29.2769ZM59.3028 32.832V45.552H61.3028V32.832H59.3028ZM59.3028 45.552C59.3028 46.0018 59.1606 46.3361 58.8757 46.6209L60.2899 48.0351C60.9651 47.3599 61.3028 46.5102 61.3028 45.552H59.3028ZM58.8757 46.6209C58.6275 46.8691 58.3275 47 57.9028 47V49C58.8222 49 59.6421 48.6829 60.2899 48.0351L58.8757 46.6209ZM57.9028 47C57.4317 47 57.1207 46.8597 56.8819 46.6209L55.4677 48.0351C56.1249 48.6923 56.9659 49 57.9028 49V47ZM56.9059 46.6457C56.6439 46.365 56.5028 46.0227 56.5028 45.552H54.5028C54.5028 46.4893 54.8097 47.331 55.4438 48.0103L56.9059 46.6457ZM56.5028 45.552V25.2H54.5028V45.552H56.5028ZM56.5028 25.2C56.5028 24.7289 56.6431 24.4179 56.8819 24.1791L55.4677 22.7649C54.8105 23.4221 54.5028 24.2631 54.5028 25.2H56.5028ZM56.9059 24.1543C57.15 23.8928 57.4536 23.752 57.9028 23.752V21.752C56.944 21.752 56.0957 22.0912 55.4438 22.7897L56.9059 24.1543ZM57.9028 23.752C58.305 23.752 58.5979 23.8823 58.8518 24.1543L60.3139 22.7897C59.6718 22.1017 58.8446 21.752 57.9028 21.752V23.752ZM58.9005 24.2031C59.1621 24.4472 59.3028 24.7508 59.3028 25.2H61.3028C61.3028 24.2412 60.9636 23.3928 60.2651 22.7409L58.9005 24.2031ZM59.3028 25.2V28.032H61.3028V25.2H59.3028ZM59.8018 27.1666L58.8898 27.6946L59.8919 29.4254L60.8039 28.8974L59.8018 27.1666ZM60.3437 28.8632C60.5317 28.2724 60.8491 27.6418 61.3157 26.9711L59.6739 25.8289C59.1165 26.6302 58.6979 27.4396 58.4379 28.2568L60.3437 28.8632ZM61.3157 26.9711C61.7669 26.3225 62.3373 25.7208 63.0355 25.168L61.7941 23.6C60.9564 24.2632 60.2468 25.0054 59.6739 25.8289L61.3157 26.9711ZM63.0199 25.1802C63.7463 24.6281 64.5473 24.1761 65.4262 23.8245L64.6834 21.9675C63.6424 22.3839 62.6834 22.9239 61.8097 23.5878L63.0199 25.1802ZM65.4262 23.8245C66.2586 23.4915 67.1714 23.32 68.1748 23.32V21.32C66.9383 21.32 65.7711 21.5325 64.6834 21.9675L65.4262 23.8245ZM122.028 23.088L121.297 23.7703L121.309 23.7829L121.321 23.7951L122.028 23.088ZM122.028 47.328L122.735 48.0351L122.747 48.0229L122.759 48.0103L122.028 47.328ZM118.572 47.328L117.841 48.0103L117.865 48.0355L117.89 48.0591L118.572 47.328ZM117.9 42.096L118.042 41.106L116.9 40.943V42.096H117.9ZM118.908 42.24H119.908V41.3727L119.05 41.25L118.908 42.24ZM118.188 44.16L117.362 43.5967L117.353 43.6098L117.345 43.6231L118.188 44.16ZM116.316 46.224L116.941 47.0049L116.95 46.9974L116.959 46.9897L116.316 46.224ZM113.484 47.856L113.841 48.7901L113.853 48.7855L113.865 48.7807L113.484 47.856ZM104.028 46.8L103.48 47.6368L103.491 47.6437L104.028 46.8ZM99.8522 42.096L98.9636 42.5546L99.8522 42.096ZM99.8522 28.512L100.738 28.9766L100.741 28.9706L99.8522 28.512ZM103.98 23.856L103.443 23.0123L103.436 23.0168L103.98 23.856ZM113.628 22.848L113.266 23.78L113.274 23.7833L113.628 22.848ZM116.7 24.576L117.332 23.8008L116.7 24.576ZM118.668 26.832L117.796 27.3206L117.807 27.3416L117.82 27.362L118.668 26.832ZM119.388 29.04L119.485 30.0353L120.388 29.9479V29.04H119.388ZM117.9 29.184H116.9V30.2854L117.997 30.1793L117.9 29.184ZM118.572 23.088L117.865 22.3809L117.853 22.3931L117.841 22.4057L118.572 23.088ZM114.492 42.912L115.047 43.744L114.492 42.912ZM117.18 39.792L118.079 40.2304L118.083 40.2219L117.18 39.792ZM114.492 27.744L115.047 26.9119L114.492 27.744ZM106.572 27.744L106.017 26.9119L106.007 26.9193L106.572 27.744ZM103.884 30.864L102.994 30.4081L102.99 30.4168L102.985 30.4256L103.884 30.864ZM103.884 39.792L102.981 40.2219L102.988 40.235L102.994 40.2479L103.884 39.792ZM106.572 42.912L106.007 43.7368L106.017 43.744L106.572 42.912ZM120.3 23.368C120.749 23.368 121.053 23.5088 121.297 23.7703L122.759 22.4057C122.107 21.7072 121.259 21.368 120.3 21.368V23.368ZM121.321 23.7951C121.56 24.0339 121.7 24.3449 121.7 24.816H123.7C123.7 23.8791 123.393 23.0381 122.735 22.3809L121.321 23.7951ZM121.7 24.816V45.552H123.7V24.816H121.7ZM121.7 45.552C121.7 46.0227 121.559 46.365 121.297 46.6457L122.759 48.0103C123.393 47.331 123.7 46.4893 123.7 45.552H121.7ZM121.321 46.6209C121.082 46.8597 120.771 47 120.3 47V49C121.237 49 122.078 48.6923 122.735 48.0351L121.321 46.6209ZM120.3 47C119.875 47 119.545 46.8677 119.255 46.5969L117.89 48.0591C118.56 48.6843 119.382 49 120.3 49V47ZM119.303 46.6457C119.041 46.365 118.9 46.0227 118.9 45.552H116.9C116.9 46.4893 117.207 47.331 117.841 48.0103L119.303 46.6457ZM118.9 45.552V42.096H116.9V45.552H118.9ZM117.759 43.0859L118.767 43.2299L119.05 41.25L118.042 41.106L117.759 43.0859ZM117.908 42.24C117.908 42.54 117.78 42.9835 117.362 43.5967L119.014 44.7233C119.556 43.9285 119.908 43.092 119.908 42.24H117.908ZM117.345 43.6231C116.963 44.2226 116.414 44.8361 115.673 45.4583L116.959 46.9897C117.819 46.2679 118.517 45.5054 119.032 44.6969L117.345 43.6231ZM115.692 45.4431C114.976 46.0158 114.116 46.5142 113.103 46.9313L113.865 48.7807C115.028 48.3018 116.057 47.7122 116.941 47.0049L115.692 45.4431ZM113.127 46.9219C112.161 47.2913 111.115 47.48 109.98 47.48V49.48C111.341 49.48 112.631 49.2527 113.841 48.7901L113.127 46.9219ZM109.98 47.48C107.951 47.48 106.155 46.9682 104.565 45.9563L103.491 47.6437C105.421 48.8718 107.594 49.48 109.98 49.48V47.48ZM104.576 45.9633C102.969 44.9116 101.691 43.4778 100.741 41.6374L98.9636 42.5546C100.062 44.6822 101.567 46.3844 103.481 47.6367L104.576 45.9633ZM100.741 41.6374C99.7992 39.813 99.3162 37.7177 99.3162 35.328H97.3162C97.3162 37.9943 97.8572 40.411 98.9636 42.5546L100.741 41.6374ZM99.3162 35.328C99.3162 32.8694 99.8011 30.762 100.738 28.9765L98.9667 28.0474C97.8553 30.166 97.3162 32.6026 97.3162 35.328H99.3162ZM100.741 28.9706C101.692 27.1279 102.954 25.7126 104.524 24.6952L103.436 23.0168C101.55 24.2394 100.06 25.9281 98.9636 28.0534L100.741 28.9706ZM104.517 24.6997C106.112 23.6847 107.877 23.176 109.836 23.176V21.176C107.508 21.176 105.368 21.7873 103.443 23.0123L104.517 24.6997ZM109.836 23.176C111.102 23.176 112.242 23.3818 113.266 23.78L113.991 21.916C112.711 21.4182 111.322 21.176 109.836 21.176V23.176ZM113.274 23.7833C114.371 24.1983 115.298 24.7237 116.069 25.3512L117.332 23.8008C116.374 23.0203 115.253 22.3937 113.982 21.9127L113.274 23.7833ZM116.069 25.3512C116.855 25.9924 117.421 26.6513 117.796 27.3206L119.541 26.3434C119.019 25.4127 118.273 24.5676 117.332 23.8008L116.069 25.3512ZM117.82 27.362C118.229 28.0159 118.388 28.5701 118.388 29.04H120.388C120.388 28.1019 120.067 27.1841 119.516 26.302L117.82 27.362ZM119.292 28.0446L117.804 28.1886L117.997 30.1793L119.485 30.0353L119.292 28.0446ZM118.9 29.184V24.816H116.9V29.184H118.9ZM118.9 24.816C118.9 24.3907 119.033 24.0604 119.303 23.7703L117.841 22.4057C117.216 23.0756 116.9 23.8973 116.9 24.816H118.9ZM119.279 23.7951C119.574 23.5005 119.896 23.368 120.3 23.368V21.368C119.36 21.368 118.53 21.7155 117.865 22.3809L119.279 23.7951ZM110.508 45.064C112.192 45.064 113.716 44.631 115.047 43.744L113.938 42.0799C112.964 42.729 111.833 43.064 110.508 43.064V45.064ZM115.047 43.744C116.355 42.8723 117.366 41.6928 118.079 40.2304L116.281 39.3536C115.715 40.5152 114.934 41.4157 113.937 42.0799L115.047 43.744ZM118.083 40.2219C118.793 38.7311 119.14 37.0942 119.14 35.328H117.14C117.14 36.8258 116.847 38.1649 116.277 39.3621L118.083 40.2219ZM119.14 35.328C119.14 33.5334 118.794 31.8921 118.079 30.4256L116.281 31.3024C116.846 32.4599 117.14 33.7946 117.14 35.328H119.14ZM118.079 30.4256C117.366 28.9632 116.355 27.7837 115.047 26.9119L113.938 28.576C114.934 29.2403 115.715 30.1408 116.281 31.3024L118.079 30.4256ZM115.047 26.9119C113.716 26.025 112.192 25.592 110.508 25.592V27.592C111.833 27.592 112.964 27.927 113.938 28.576L115.047 26.9119ZM110.508 25.592C108.852 25.592 107.344 26.0274 106.017 26.9119L107.127 28.576C108.104 27.9246 109.221 27.592 110.508 27.592V25.592ZM106.007 26.9193C104.738 27.7892 103.735 28.9611 102.994 30.4081L104.774 31.3199C105.377 30.1429 106.166 29.2348 107.138 28.5687L106.007 26.9193ZM102.985 30.4256C102.27 31.8921 101.924 33.5334 101.924 35.328H103.924C103.924 33.7946 104.218 32.4599 104.783 31.3024L102.985 30.4256ZM101.924 35.328C101.924 37.0942 102.271 38.7311 102.981 40.2219L104.787 39.3621C104.217 38.1649 103.924 36.8258 103.924 35.328H101.924ZM102.994 40.2479C103.735 41.6949 104.738 42.8668 106.007 43.7367L107.138 42.0873C106.166 41.4212 105.377 40.5131 104.774 39.3361L102.994 40.2479ZM106.017 43.744C107.344 44.6286 108.852 45.064 110.508 45.064V43.064C109.221 43.064 108.104 42.7314 107.127 42.0799L106.017 43.744ZM147.713 23.616L147.103 24.4086L147.109 24.4136L147.116 24.4185L147.713 23.616ZM150.305 27.408L149.347 27.6953L149.35 27.7069L149.354 27.7184L150.305 27.408ZM150.353 47.328L151.06 48.0351L150.353 47.328ZM146.945 47.328L146.214 48.0103L146.225 48.0229L146.238 48.0351L146.945 47.328ZM145.793 29.664L144.847 29.99L144.851 30.0003L145.793 29.664ZM144.113 27.456L143.513 28.256L143.531 28.2699L143.55 28.2829L144.113 27.456ZM137.393 27.456L137.874 28.3328L137.884 28.3269L137.895 28.3208L137.393 27.456ZM135.041 29.664L134.191 29.1366L134.186 29.145L135.041 29.664ZM133.505 47.328L132.798 46.6209L133.505 47.328ZM130.097 47.328L129.366 48.0103L129.377 48.0229L129.39 48.0351L130.097 47.328ZM130.097 23.472L130.804 24.1791L130.816 24.1669L130.828 24.1543L130.097 23.472ZM133.505 23.472L132.774 24.1543L132.797 24.1795L132.822 24.2031L133.505 23.472ZM134.225 27.888L134.71 28.7622L135.225 28.4764V27.888H134.225ZM133.361 28.368L132.408 28.0648L131.644 30.4658L133.846 29.2422L133.361 28.368ZM134.513 26.256L133.725 25.6397L133.721 25.6446L134.513 26.256ZM136.577 24.24L137.182 25.0362L137.192 25.0286L137.201 25.0209L136.577 24.24ZM139.265 22.752L139.599 23.6944L139.612 23.6897L139.626 23.6846L139.265 22.752ZM142.433 23.176C144.579 23.176 146.092 23.6312 147.103 24.4086L148.322 22.8234C146.837 21.6808 144.831 21.176 142.433 21.176V23.176ZM147.116 24.4185C148.178 25.2083 148.924 26.2852 149.347 27.6953L151.263 27.1207C150.726 25.3308 149.743 23.8797 148.309 22.8135L147.116 24.4185ZM149.354 27.7184C149.828 29.1698 150.073 30.8226 150.073 32.688H152.073C152.073 30.6494 151.805 28.7822 151.255 27.0976L149.354 27.7184ZM150.073 32.688V45.552H152.073V32.688H150.073ZM150.073 45.552C150.073 46.0018 149.93 46.3361 149.646 46.6209L151.06 48.0351C151.735 47.3599 152.073 46.5102 152.073 45.552H150.073ZM149.646 46.6209C149.397 46.8691 149.097 47 148.673 47V49C149.592 49 150.412 48.6829 151.06 48.0351L149.646 46.6209ZM148.673 47C148.202 47 147.891 46.8597 147.652 46.6209L146.238 48.0351C146.895 48.6923 147.736 49 148.673 49V47ZM147.676 46.6457C147.414 46.365 147.273 46.0227 147.273 45.552H145.273C145.273 46.4893 145.58 47.331 146.214 48.0103L147.676 46.6457ZM147.273 45.552V32.736H145.273V45.552H147.273ZM147.273 32.736C147.273 31.4928 147.1 30.3517 146.734 29.3277L144.851 30.0003C145.125 30.7683 145.273 31.6752 145.273 32.736H147.273ZM146.738 29.338C146.349 28.2093 145.656 27.2963 144.675 26.6291L143.55 28.2829C144.169 28.7037 144.597 29.2627 144.847 29.99L146.738 29.338ZM144.713 26.656C143.708 25.9021 142.376 25.592 140.849 25.592V27.592C142.137 27.592 142.982 27.8579 143.513 28.256L144.713 26.656ZM140.849 25.592C139.386 25.592 138.056 25.9145 136.891 26.5912L137.895 28.3208C138.713 27.8454 139.687 27.592 140.849 27.592V25.592ZM136.912 26.5792C135.775 27.2029 134.861 28.057 134.191 29.1366L135.89 30.1914C136.372 29.415 137.027 28.7971 137.874 28.3328L136.912 26.5792ZM134.186 29.145C133.538 30.2127 133.225 31.4197 133.225 32.736H135.225C135.225 31.7483 135.456 30.9073 135.895 30.183L134.186 29.145ZM133.225 32.736V45.552H135.225V32.736H133.225ZM133.225 45.552C133.225 46.0018 133.082 46.3361 132.798 46.6209L134.212 48.0351C134.887 47.3599 135.225 46.5102 135.225 45.552H133.225ZM132.798 46.6209C132.549 46.8691 132.249 47 131.825 47V49C132.744 49 133.564 48.6829 134.212 48.0351L132.798 46.6209ZM131.825 47C131.354 47 131.043 46.8597 130.804 46.6209L129.39 48.0351C130.047 48.6923 130.888 49 131.825 49V47ZM130.828 46.6457C130.566 46.365 130.425 46.0227 130.425 45.552H128.425C128.425 46.4893 128.732 47.331 129.366 48.0103L130.828 46.6457ZM130.425 45.552V25.2H128.425V45.552H130.425ZM130.425 25.2C130.425 24.7289 130.565 24.4179 130.804 24.1791L129.39 22.7649C128.732 23.4221 128.425 24.2631 128.425 25.2H130.425ZM130.828 24.1543C131.072 23.8928 131.375 23.752 131.825 23.752V21.752C130.866 21.752 130.018 22.0912 129.366 22.7897L130.828 24.1543ZM131.825 23.752C132.227 23.752 132.52 23.8823 132.774 24.1543L134.236 22.7897C133.594 22.1017 132.767 21.752 131.825 21.752V23.752ZM132.822 24.2031C133.084 24.4472 133.225 24.7508 133.225 25.2H135.225C135.225 24.2412 134.885 23.3928 134.187 22.7409L132.822 24.2031ZM133.225 25.2V27.888H135.225V25.2H133.225ZM133.739 27.0138L132.875 27.4938L133.846 29.2422L134.71 28.7622L133.739 27.0138ZM134.314 28.6712C134.496 28.0988 134.817 27.4973 135.304 26.8674L133.721 25.6446C133.12 26.4227 132.674 27.2292 132.408 28.0648L134.314 28.6712ZM135.3 26.8723C135.82 26.2087 136.445 25.5962 137.182 25.0362L135.972 23.4438C135.108 24.0998 134.358 24.8313 133.725 25.6397L135.3 26.8723ZM137.201 25.0209C137.912 24.4524 138.709 24.0102 139.599 23.6944L138.93 21.8096C137.836 22.1978 136.841 22.7476 135.952 23.4591L137.201 25.0209ZM139.626 23.6846C140.497 23.3475 141.43 23.176 142.433 23.176V21.176C141.196 21.176 140.017 21.3885 138.904 21.8194L139.626 23.6846ZM161.577 47.328L162.284 48.0351L162.296 48.0229L162.308 48.0103L161.577 47.328ZM158.121 47.328L157.39 48.0103L157.414 48.0355L157.439 48.0591L158.121 47.328ZM158.121 23.28L157.414 22.5729L158.121 23.28ZM161.577 23.28L160.846 23.9623L160.858 23.9749L160.87 23.9871L161.577 23.28ZM157.785 18.912L157.139 19.6754L157.157 19.6904L157.175 19.7046L157.785 18.912ZM157.833 14.736L158.414 15.5497L157.833 14.736ZM161.913 14.784L161.267 15.5474L161.285 15.5624L161.303 15.5766L161.913 14.784ZM161.865 18.912L161.284 18.0983L161.27 18.1086L161.255 18.1194L161.865 18.912ZM161.249 45.552C161.249 46.0227 161.108 46.365 160.846 46.6457L162.308 48.0103C162.942 47.331 163.249 46.4893 163.249 45.552H161.249ZM160.87 46.6209C160.631 46.8597 160.32 47 159.849 47V49C160.786 49 161.627 48.6923 162.284 48.0351L160.87 46.6209ZM159.849 47C159.424 47 159.094 46.8677 158.804 46.5969L157.439 48.0591C158.109 48.6843 158.93 49 159.849 49V47ZM158.852 46.6457C158.59 46.365 158.449 46.0227 158.449 45.552H156.449C156.449 46.4893 156.756 47.331 157.39 48.0103L158.852 46.6457ZM158.449 45.552V25.008H156.449V45.552H158.449ZM158.449 25.008C158.449 24.5369 158.59 24.2259 158.828 23.9871L157.414 22.5729C156.757 23.2301 156.449 24.0711 156.449 25.008H158.449ZM158.828 23.9871C159.123 23.6925 159.445 23.56 159.849 23.56V21.56C158.909 21.56 158.079 21.9075 157.414 22.5729L158.828 23.9871ZM159.849 23.56C160.298 23.56 160.602 23.7008 160.846 23.9623L162.308 22.5977C161.656 21.8992 160.808 21.56 159.849 21.56V23.56ZM160.87 23.9871C161.109 24.2259 161.249 24.5369 161.249 25.008H163.249C163.249 24.0711 162.942 23.2301 162.284 22.5729L160.87 23.9871ZM161.249 25.008V45.552H163.249V25.008H161.249ZM159.801 18.392C158.943 18.392 158.546 18.2354 158.395 18.1194L157.175 19.7046C157.857 20.2286 158.803 20.392 159.801 20.392V18.392ZM158.431 18.1486C158.329 18.0619 158.161 17.8308 158.161 17.184H156.161C156.161 18.1372 156.41 19.0581 157.139 19.6754L158.431 18.1486ZM158.161 17.184V16.416H156.161V17.184H158.161ZM158.161 16.416C158.161 15.784 158.334 15.6071 158.414 15.5497L157.252 13.9223C156.436 14.5049 156.161 15.448 156.161 16.416H158.161ZM158.414 15.5497C158.616 15.4056 159.042 15.256 159.849 15.256V13.256C158.864 13.256 157.946 13.4264 157.252 13.9223L158.414 15.5497ZM159.849 15.256C160.735 15.256 161.126 15.4277 161.267 15.5474L162.559 14.0206C161.869 13.4363 160.883 13.256 159.849 13.256V15.256ZM161.303 15.5766C161.375 15.6316 161.537 15.8086 161.537 16.416H163.537C163.537 15.4874 163.283 14.5764 162.523 13.9914L161.303 15.5766ZM161.537 16.416V17.184H163.537V16.416H161.537ZM161.537 17.184C161.537 17.8651 161.355 18.0476 161.284 18.0983L162.446 19.7257C163.271 19.1364 163.537 18.1669 163.537 17.184H161.537ZM161.255 18.1194C161.109 18.2322 160.701 18.392 159.801 18.392V20.392C160.822 20.392 161.79 20.2318 162.475 19.7046L161.255 18.1194ZM191.122 23.088L190.391 23.7703L190.403 23.7829L190.415 23.7951L191.122 23.088ZM191.122 47.328L191.829 48.0351L191.841 48.0229L191.853 48.0103L191.122 47.328ZM187.666 47.328L186.935 48.0103L186.958 48.0355L186.984 48.0591L187.666 47.328ZM186.994 42.096L187.135 41.106L185.994 40.943V42.096H186.994ZM188.002 42.24H189.002V41.3727L188.143 41.25L188.002 42.24ZM187.282 44.16L186.456 43.5967L186.447 43.6098L186.438 43.6231L187.282 44.16ZM185.41 46.224L186.035 47.0049L186.044 46.9974L186.053 46.9897L185.41 46.224ZM182.578 47.856L182.935 48.7901L182.947 48.7855L182.959 48.7807L182.578 47.856ZM173.122 46.8L172.574 47.6368L172.585 47.6437L173.122 46.8ZM168.946 42.096L168.057 42.5546L168.946 42.096ZM168.946 28.512L169.832 28.9766L169.835 28.9706L168.946 28.512ZM173.074 23.856L172.537 23.0123L172.53 23.0168L173.074 23.856ZM182.722 22.848L182.359 23.78L182.368 23.7833L182.722 22.848ZM185.794 24.576L186.426 23.8008L185.794 24.576ZM187.762 26.832L186.889 27.3206L186.901 27.3416L186.914 27.362L187.762 26.832ZM188.482 29.04L188.578 30.0353L189.482 29.9479V29.04H188.482ZM186.994 29.184H185.994V30.2854L187.09 30.1793L186.994 29.184ZM187.666 23.088L186.959 22.3809L186.947 22.3931L186.935 22.4057L187.666 23.088ZM183.586 42.912L184.141 43.744L183.586 42.912ZM186.274 39.792L187.173 40.2304L187.177 40.2219L186.274 39.792ZM183.586 27.744L184.141 26.9119L183.586 27.744ZM175.666 27.744L175.111 26.9119L175.1 26.9193L175.666 27.744ZM172.978 30.864L172.088 30.4081L172.083 30.4168L172.079 30.4256L172.978 30.864ZM172.978 39.792L172.075 40.2219L172.081 40.235L172.088 40.2479L172.978 39.792ZM175.666 42.912L175.1 43.7368L175.111 43.744L175.666 42.912ZM189.394 23.368C189.843 23.368 190.147 23.5088 190.391 23.7703L191.853 22.4057C191.201 21.7072 190.353 21.368 189.394 21.368V23.368ZM190.415 23.7951C190.654 24.0339 190.794 24.3449 190.794 24.816H192.794C192.794 23.8791 192.486 23.0381 191.829 22.3809L190.415 23.7951ZM190.794 24.816V45.552H192.794V24.816H190.794ZM190.794 45.552C190.794 46.0227 190.653 46.365 190.391 46.6457L191.853 48.0103C192.487 47.331 192.794 46.4893 192.794 45.552H190.794ZM190.415 46.6209C190.176 46.8597 189.865 47 189.394 47V49C190.331 49 191.172 48.6923 191.829 48.0351L190.415 46.6209ZM189.394 47C188.969 47 188.638 46.8677 188.348 46.5969L186.984 48.0591C187.654 48.6843 188.475 49 189.394 49V47ZM188.397 46.6457C188.135 46.365 187.994 46.0227 187.994 45.552H185.994C185.994 46.4893 186.301 47.331 186.935 48.0103L188.397 46.6457ZM187.994 45.552V42.096H185.994V45.552H187.994ZM186.853 43.0859L187.861 43.2299L188.143 41.25L187.135 41.106L186.853 43.0859ZM187.002 42.24C187.002 42.54 186.874 42.9835 186.456 43.5967L188.108 44.7233C188.65 43.9285 189.002 43.092 189.002 42.24H187.002ZM186.438 43.6231C186.057 44.2226 185.507 44.8361 184.767 45.4583L186.053 46.9897C186.912 46.2679 187.611 45.5054 188.126 44.6969L186.438 43.6231ZM184.785 45.4431C184.069 46.0158 183.21 46.5142 182.197 46.9313L182.959 48.7807C184.122 48.3018 185.151 47.7122 186.035 47.0049L184.785 45.4431ZM182.221 46.9219C181.255 47.2913 180.209 47.48 179.074 47.48V49.48C180.435 49.48 181.725 49.2527 182.935 48.7901L182.221 46.9219ZM179.074 47.48C177.044 47.48 175.249 46.9682 173.659 45.9563L172.585 47.6437C174.515 48.8718 176.687 49.48 179.074 49.48V47.48ZM173.67 45.9633C172.063 44.9116 170.784 43.4778 169.835 41.6374L168.057 42.5546C169.155 44.6822 170.661 46.3844 172.574 47.6367L173.67 45.9633ZM169.835 41.6374C168.893 39.813 168.41 37.7177 168.41 35.328H166.41C166.41 37.9943 166.951 40.411 168.057 42.5546L169.835 41.6374ZM168.41 35.328C168.41 32.8694 168.895 30.762 169.831 28.9765L168.06 28.0474C166.949 30.166 166.41 32.6026 166.41 35.328H168.41ZM169.835 28.9706C170.786 27.1279 172.048 25.7126 173.618 24.6952L172.53 23.0168C170.644 24.2394 169.154 25.9281 168.057 28.0534L169.835 28.9706ZM173.611 24.6997C175.206 23.6847 176.971 23.176 178.93 23.176V21.176C176.601 21.176 174.462 21.7873 172.537 23.0123L173.611 24.6997ZM178.93 23.176C180.196 23.176 181.335 23.3818 182.359 23.78L183.084 21.916C181.804 21.4182 180.416 21.176 178.93 21.176V23.176ZM182.368 23.7833C183.465 24.1983 184.392 24.7237 185.162 25.3512L186.426 23.8008C185.468 23.0203 184.347 22.3937 183.076 21.9127L182.368 23.7833ZM185.162 25.3512C185.949 25.9924 186.515 26.6513 186.889 27.3206L188.634 26.3434C188.113 25.4127 187.367 24.5676 186.426 23.8008L185.162 25.3512ZM186.914 27.362C187.323 28.0159 187.482 28.5701 187.482 29.04H189.482C189.482 28.1019 189.161 27.1841 188.61 26.302L186.914 27.362ZM188.386 28.0446L186.898 28.1886L187.09 30.1793L188.578 30.0353L188.386 28.0446ZM187.994 29.184V24.816H185.994V29.184H187.994ZM187.994 24.816C187.994 24.3907 188.126 24.0604 188.397 23.7703L186.935 22.4057C186.31 23.0756 185.994 23.8973 185.994 24.816H187.994ZM188.373 23.7951C188.668 23.5005 188.99 23.368 189.394 23.368V21.368C188.454 21.368 187.624 21.7155 186.959 22.3809L188.373 23.7951ZM179.602 45.064C181.286 45.064 182.81 44.631 184.141 43.744L183.031 42.0799C182.058 42.729 180.926 43.064 179.602 43.064V45.064ZM184.141 43.744C185.448 42.8723 186.459 41.6928 187.173 40.2304L185.375 39.3536C184.809 40.5152 184.028 41.4157 183.031 42.0799L184.141 43.744ZM187.177 40.2219C187.887 38.7311 188.234 37.0942 188.234 35.328H186.234C186.234 36.8258 185.941 38.1649 185.371 39.3621L187.177 40.2219ZM188.234 35.328C188.234 33.5334 187.888 31.8921 187.173 30.4256L185.375 31.3024C185.94 32.4599 186.234 33.7946 186.234 35.328H188.234ZM187.173 30.4256C186.459 28.9632 185.448 27.7837 184.141 26.9119L183.031 28.576C184.028 29.2403 184.809 30.1408 185.375 31.3024L187.173 30.4256ZM184.141 26.9119C182.81 26.025 181.286 25.592 179.602 25.592V27.592C180.926 27.592 182.058 27.927 183.031 28.576L184.141 26.9119ZM179.602 25.592C177.946 25.592 176.438 26.0274 175.111 26.9119L176.221 28.576C177.198 27.9246 178.314 27.592 179.602 27.592V25.592ZM175.1 26.9193C173.832 27.7892 172.829 28.9611 172.088 30.4081L173.868 31.3199C174.471 30.1429 175.26 29.2348 176.231 28.5687L175.1 26.9193ZM172.079 30.4256C171.364 31.8921 171.018 33.5334 171.018 35.328H173.018C173.018 33.7946 173.312 32.4599 173.877 31.3024L172.079 30.4256ZM171.018 35.328C171.018 37.0942 171.365 38.7311 172.075 40.2219L173.881 39.3621C173.311 38.1649 173.018 36.8258 173.018 35.328H171.018ZM172.088 40.2479C172.829 41.6949 173.832 42.8668 175.1 43.7367L176.231 42.0873C175.26 41.4212 174.471 40.5131 173.868 39.3361L172.088 40.2479ZM175.111 43.744C176.438 44.6286 177.946 45.064 179.602 45.064V43.064C178.314 43.064 177.198 42.7314 176.221 42.0799L175.111 43.744Z" fill="black" mask="url(#path-1-outside-1_6_70)"/>
</g>
<path d="M31.7275 9.01357C33.1794 8.87865 34.5307 9.76097 34.9017 11.1546L36.2324 16.1493C19.3753 16.6367 7.97195 27.7428 7.25857 44.2876L2.1427 42.8869C0.730305 42.4999 -0.147499 41.14 0.0205154 39.7003C1.89651 23.6535 15.3834 10.5377 31.7275 9.01357ZM36.9808 18.9552L45.952 52.6403C46.0172 52.885 46.016 53.1424 45.9484 53.3865C45.8807 53.6306 45.7492 53.8527 45.5669 54.0305C45.3847 54.2083 45.1582 54.3355 44.9103 54.3992C44.6624 54.4629 44.4019 54.4609 44.1551 54.3934L10.1031 45.0643C10.4868 29.5403 21.1615 19.1327 36.9808 18.9587V18.9552ZM34.501 45.9262C35.0697 45.9262 35.6255 45.7596 36.0983 45.4475C36.5711 45.1354 36.9397 44.6918 37.1573 44.1727C37.3749 43.6537 37.4318 43.0826 37.3209 42.5316C37.2099 41.9806 36.9361 41.4745 36.534 41.0772C36.1319 40.68 35.6196 40.4095 35.0619 40.2999C34.5042 40.1903 33.9261 40.2465 33.4008 40.4615C32.8754 40.6765 32.4264 41.0406 32.1105 41.5077C31.7945 41.9748 31.6259 42.524 31.6259 43.0858C31.6259 43.8391 31.9288 44.5616 32.468 45.0943C33.0072 45.6269 33.7385 45.9262 34.501 45.9262ZM30.1884 32.434C30.757 32.434 31.3129 32.2674 31.7857 31.9553C32.2585 31.6432 32.627 31.1996 32.8446 30.6806C33.0622 30.1615 33.1192 29.5904 33.0082 29.0394C32.8973 28.4884 32.6235 27.9823 32.2214 27.5851C31.8193 27.1878 31.307 26.9173 30.7493 26.8077C30.1916 26.6981 29.6135 26.7543 29.0881 26.9693C28.5628 27.1843 28.1137 27.5484 27.7978 28.0155C27.4819 28.4826 27.3133 29.0318 27.3133 29.5936C27.3133 30.3469 27.6162 31.0694 28.1554 31.6021C28.6946 32.1348 29.4259 32.434 30.1884 32.434ZM20.8443 41.6655C21.4129 41.6655 21.9688 41.4989 22.4416 41.1868C22.9144 40.8747 23.2829 40.4311 23.5006 39.9121C23.7182 39.393 23.7751 38.8219 23.6642 38.2709C23.5532 37.7199 23.2794 37.2138 22.8773 36.8166C22.4752 36.4193 21.9629 36.1488 21.4052 36.0392C20.8475 35.9296 20.2694 35.9858 19.7441 36.2008C19.2187 36.4158 18.7697 36.7799 18.4538 37.247C18.1378 37.7141 17.9692 38.2633 17.9692 38.8251C17.9692 39.5784 18.2721 40.3009 18.8113 40.8336C19.3505 41.3663 20.0818 41.6655 20.8443 41.6655Z" fill="#FF8C42"/>
<defs>
<filter id="filter0_d_6_70" x="51.5028" y="14.256" width="144.291" height="42.224" filterUnits="userSpaceOnUse" color-interpolation-filters="sRGB">
<feFlood flood-opacity="0" result="BackgroundImageFix"/>
<feColorMatrix in="SourceAlpha" type="matrix" values="0 0 0 0 0 0 0 0 0 0 0 0 0 0 0 0 0 0 127 0" result="hardAlpha"/>
<feOffset dy="4"/>
<feGaussianBlur stdDeviation="2"/>
<feComposite in2="hardAlpha" operator="out"/>
<feColorMatrix type="matrix" values="0 0 0 0 0 0 0 0 0 0 0 0 0 0 0 0 0 0 0.25 0"/>
<feBlend mode="normal" in2="BackgroundImageFix" result="effect1_dropShadow_6_70"/>
<feBlend mode="normal" in="SourceGraphic" in2="effect1_dropShadow_6_70" result="shape"/>
</filter>
</defs>
</svg>
